<svg height="512" viewBox="0 0 128 128" width="512" xmlns="http://www.w3.org/2000/svg"><g><g fill="#fd5c70"><path d="m75.056 29.468a6.247 6.247 0 0 0 2.259-2.157 5.9 5.9 0 0 0 -6.871-8.672c-5.567 1.828-9.615 6.345-11.705 13.062-.01.034-.02.07-.029.106a33.587 33.587 0 0 0 -1.389 8.3c-.01.372-.01.58-.01.58a1.75 1.75 0 0 0 3.5 0c0-.013 0-.184.008-.474a30.366 30.366 0 0 1 1.264-7.473.848.848 0 0 0 .024-.09c1.77-5.621 4.942-9.217 9.429-10.691a2.35 2.35 0 0 1 2.141.339 2.394 2.394 0 0 1 1 1.958 2.323 2.323 0 0 1 -.347 1.218 2.666 2.666 0 0 1 -.976.928c-2.754 1.521-7.226 5.418-6.163 14.498a1.751 1.751 0 0 0 1.737 1.545 1.813 1.813 0 0 0 .206-.011 1.751 1.751 0 0 0 1.534-1.943c-.784-6.691 1.946-9.682 4.388-11.023z"/><path d="m56.272 28.4a10.3 10.3 0 0 1 2.438 4.248 1.751 1.751 0 1 0 3.372-.941 13.787 13.787 0 0 0 -3.335-5.781c-5.694-5.695-16.082-4.131-16.519-4.062a1.751 1.751 0 0 0 -1.457 1.456c-.068.435-1.612 10.715 3.978 16.426a1.75 1.75 0 0 0 2.5-2.447c-3.343-3.415-3.343-9.45-3.155-12.111 2.679-.188 8.775-.188 12.178 3.212z"/><path d="m59.07 41.911a1.75 1.75 0 0 0 1.238-2.987l-7.83-7.83a1.75 1.75 0 0 0 -2.478 2.474l7.83 7.83a1.743 1.743 0 0 0 1.24.513z"/></g><path d="m93.359 67.361a1.75 1.75 0 0 0 1.95-1.525c.866-7.106-.483-12.376-4.009-15.664-5.133-4.789-12.841-3.365-13.167-3.3a1.75 1.75 0 0 0 .66 3.437c.063-.01 6.32-1.138 10.135 2.439 2.65 2.483 3.628 6.745 2.906 12.666a1.75 1.75 0 0 0 1.525 1.947z" fill="#27276d"/><path d="m44.64 107.292c6.2 3.346 12.869 3.139 19.36-.59a20.678 20.678 0 0 0 10.341 2.955 18.826 18.826 0 0 0 9.019-2.365c11.395-6.152 19.936-24.176 20.31-42.855.226-11.315-2.595-19.291-8.384-23.708-6.052-4.616-15.085-5.194-26.849-1.716-1.432.42-2.922.909-4.438 1.456q-1.151-.417-2.278-.782l-1.375-.438c-.277-.086-.552-.17-.787-.235a48.77 48.77 0 0 0 -13.559-2.243h-.054c-6.37 0-11.444 1.878-15.08 5.582-4.541 4.626-6.741 12.057-6.539 22.084.378 18.68 8.919 36.704 20.313 42.855zm-11.273-62.492c2.953-3.008 7.186-4.534 12.581-4.534h.052a45.384 45.384 0 0 1 12.6 2.107c.234.064.478.141.708.211l1.341.427c.909.294 1.826.616 2.754.958a1.76 1.76 0 0 0 1.21 0c1.65-.61 3.271-1.149 4.82-1.6 10.636-3.145 18.623-2.759 23.737 1.143 4.853 3.7 7.21 10.717 7.007 20.853-.35 17.5-8.118 34.256-18.472 39.846-5.395 2.912-11.037 2.566-16.767-1.033a1.751 1.751 0 0 0 -1.862 0c-5.728 3.6-11.371 3.947-16.766 1.033-10.361-5.589-18.129-22.346-18.48-39.845-.184-9.051 1.68-15.632 5.537-19.561z" fill="#27276d"/></g></svg>