<svg id="Capa_1" enable-background="new 0 0 511.998 511.998" height="512" viewBox="0 0 511.998 511.998" width="512" xmlns="http://www.w3.org/2000/svg"><g><path d="m120.999 0c-8.284 0-15 6.718-15 15.002 0 24.81 20.187 44.995 45 44.995h210c8.271 0 15 6.729 15 15s-6.729 15-15 15h-75c-24.813 0-45 20.187-45 45v15.936c-59.115 7.404-105 57.975-105 119.064v122c0 66.168 53.832 120 120 120s120-53.832 120-120v-122c0-61.089-45.885-111.66-105-119.064v-15.936c0-8.271 6.729-15 15-15h75c24.813 0 45-20.187 45-45s-20.187-45-45-45h-210c-8.271 0-15-6.727-15-14.995 0-8.284-6.716-15.002-15-15.002zm225 391.998c0 49.626-40.374 90-90 90s-90-40.374-90-90v-92h180zm0-122h-75v-45c0-8.284-6.716-15-15-15s-15 6.716-15 15v45h-75c0-49.626 40.374-90 90-90s90 40.373 90 90z"/></g></svg>